<?xml version="1.0" encoding="UTF-8" standalone="no"?>
<!-- Created with Inkscape (http://www.inkscape.org/) -->

<svg
   xmlns:dc="http://purl.org/dc/elements/1.1/"
   xmlns:cc="http://creativecommons.org/ns#"
   xmlns:rdf="http://www.w3.org/1999/02/22-rdf-syntax-ns#"
   xmlns:svg="http://www.w3.org/2000/svg"
   xmlns="http://www.w3.org/2000/svg"
   xmlns:sodipodi="http://sodipodi.sourceforge.net/DTD/sodipodi-0.dtd"
   xmlns:inkscape="http://www.inkscape.org/namespaces/inkscape"
   width="224.84921"
   height="30.05098"
   viewBox="0 0 224.84921 30.05098"
   version="1.1"
   id="SVGRoot"
   inkscape:version="0.92.3 (2405546, 2018-03-11)"
   sodipodi:docname="smRedMuleBannerW.svg">
  <title
     id="title12032">Red Mule Runners</title>
  <sodipodi:namedview
     id="base"
     pagecolor="#ffffff"
     bordercolor="#666666"
     borderopacity="1.0"
     inkscape:pageopacity="0.0"
     inkscape:pageshadow="2"
     inkscape:zoom="4.16"
     inkscape:cx="200"
     inkscape:cy="50.000004"
     inkscape:document-units="px"
     inkscape:current-layer="layer1"
     showgrid="false"
     inkscape:window-width="1920"
     inkscape:window-height="1017"
     inkscape:window-x="-8"
     inkscape:window-y="-8"
     inkscape:window-maximized="1" />
  <defs
     id="defs11622" />
  <metadata
     id="metadata11625">
    <rdf:RDF>
      <cc:Work
         rdf:about="">
        <dc:format>image/svg+xml</dc:format>
        <dc:type
           rdf:resource="http://purl.org/dc/dcmitype/StillImage" />
        <dc:title>Red Mule Runners</dc:title>
      </cc:Work>
    </rdf:RDF>
  </metadata>
  <g
     id="layer1"
     inkscape:groupmode="layer"
     inkscape:label="Layer 1"
     transform="translate(-5.2021865e-7,-69.949024)">
    <flowRoot
       xml:space="preserve"
       id="flowRoot11726"
       style="font-style:normal;font-weight:normal;font-size:40px;line-height:1.25;font-family:sans-serif;letter-spacing:0px;word-spacing:0px;fill:#000000;fill-opacity:1;stroke:none"><flowRegion
         id="flowRegion11728"><rect
           id="rect11730"
           width="202.34375"
           height="137.5"
           x="99.21875"
           y="1.5625" /></flowRegion><flowPara
         id="flowPara11732" /></flowRoot>    <text
       xml:space="preserve"
       style="font-style:normal;font-variant:normal;font-weight:normal;font-stretch:normal;font-size:28.48058891px;line-height:1.25;font-family:'Segoe Script';-inkscape-font-specification:'Segoe Script';text-align:center;letter-spacing:0px;word-spacing:0px;text-anchor:middle;fill:#ffffff;fill-opacity:1;stroke:none;stroke-width:0.71201468;"
       x="74.052536"
       y="139.94701"
       id="text11746"
       transform="scale(1.773093,0.56398621)"><tspan
         sodipodi:role="line"
         x="74.052536"
         y="139.94701"
         id="tspan11748"
         style="font-size:19.89869118px;line-height:1em;stroke-width:0.71201468;fill:#ffffff;">Red Mule</tspan><tspan
         sodipodi:role="line"
         x="74.052536"
         y="175.54774"
         style="font-size:19.89869118px;line-height:1em;stroke-width:0.71201468;fill:#ffffff;"
         id="tspan35">Runners</tspan></text>
    <g
       id="g202"
       transform="matrix(0.29800001,0,0,0.29800001,0.08288471,70.200004)"
       style="fill:#ffffff">
      <path
         id="path11857"
         d="M -0.27813489,99.999996 C -0.01993785,99.092673 0.29764688,98.206669 0.75089149,97.425119 6.8502042,86.725337 13.143398,76.203543 19.250402,65.51172 c 2.043832,-3.68997 4.237603,-7.242421 6.430729,-10.791856 0.921341,-1.343623 1.791234,-2.779036 2.909799,-3.875238 1.672344,-1.599272 4.307242,-0.884098 5.33749,1.398356 1.211872,3.131738 0.393098,6.865247 -1.378651,9.392123 -4.604845,6.530566 -9.690794,12.471199 -14.763221,18.408718 -4.83763,5.802313 -9.7535661,11.498335 -14.783464,17.030906 -1.0650247,1.020232 -2.01463912,2.309731 -3.28103279,2.924802 z"
         inkscape:connector-curvature="0"
         style="fill:#ffffff;stroke-width:0.25553077" />
      <path
         id="path11859"
         d="m 24.436739,49.984008 c 0.320478,-2.199678 1.963387,-3.790851 3.525741,-5.050987 6.94724,0.610744 12.387072,5.639704 17.35384,10.358555 2.322983,2.351844 4.999992,4.961821 5.20791,8.769906 -0.203962,1.825285 -0.964935,3.551344 -1.76638,5.178586 -3.806916,7.167272 -9.489456,12.857666 -15.270206,18.06535 -2.53182,2.192315 -4.918155,4.610439 -7.551691,6.645876 l -0.603342,0.104974 c 1.365592,-2.847687 3.329952,-5.289606 4.830068,-8.048938 3.787475,-6.950317 7.432245,-13.996268 11.627214,-20.67747 -2.536541,-1.340064 -5.333959,-2.064452 -7.7978,-3.567572 -2.880985,-1.709213 -5.673736,-3.739964 -7.784299,-6.517375 -1.103416,-1.421817 -1.920796,-3.283804 -1.770927,-5.260492 z"
         inkscape:connector-curvature="0"
         style="fill:#ffffff;stroke-width:0.25553077" />
      <path
         id="path11861"
         d="m 46.883152,26.87423 c -1.391546,0.760591 -2.036711,2.22756 -2.480656,3.559114 2.18881,4.36117 6.951335,6.633739 11.384845,8.676665 2.171061,0.919073 4.605372,2.003215 7.209471,1.182657 1.170578,-0.590587 2.132141,-1.518547 3.016686,-2.44792 3.826364,-4.272823 6.182987,-9.393754 8.190702,-14.457108 0.819973,-2.195796 1.828535,-4.353519 2.517666,-6.575731 l -0.08425,-0.418387 c -1.55798,1.60244 -2.690465,3.491762 -4.155138,5.158959 -3.685935,4.205899 -7.472656,8.343103 -10.87404,12.746369 -1.547447,-1.312066 -2.749183,-2.948158 -4.38769,-4.172141 -1.883053,-1.442989 -3.958878,-2.747724 -6.360277,-3.421872 -1.234917,-0.360542 -2.691645,-0.424033 -3.977638,0.169555 z"
         inkscape:connector-curvature="0"
         style="fill:#ffffff;stroke-width:0.25553077" />
      <path
         id="path11863"
         d="m 45.970003,0.05143736 c 3.198589,-0.36855626 6.579171,1.25824094 8.586939,4.40308774 1.411751,1.9712906 2.036011,4.5948927 2.263907,7.1650799 -0.126097,2.980825 -0.985281,5.997976 -2.703612,8.153167 -2.611941,3.562051 -7.083135,4.775945 -10.678738,2.967746 -4.919212,-2.079573 -7.814928,-9.844247 -5.358243,-15.6757009 1.360007,-3.9087539 4.514782,-6.51584914 7.889747,-7.01308913 z"
         inkscape:connector-curvature="0"
         style="fill:#ffffff;stroke-width:0.25553077" />
      <path
         id="path11865"
         d="m 36.479083,26.323674 c 1.338599,-1.065879 1.821874,-2.730187 2.114557,-4.213682 -2.79093,-4.158253 -7.973426,-5.629 -12.789211,-6.921858 -2.347705,-0.547843 -4.987336,-1.218727 -7.566771,0.143627 -1.132043,0.845214 -2.007267,2.004096 -2.80341,3.149835 -3.411754,5.221985 -5.205688,11.051595 -6.6480628,16.754128 -0.5734324,2.462813 -1.3456423,4.922372 -1.780774,7.387773 l 0.1382903,0.423172 c 1.4060037,-1.981693 2.3389078,-4.183304 3.6406405,-6.215542 3.275508,-5.124316 6.663031,-10.195901 9.621231,-15.472604 1.754767,1.080067 3.193923,2.566698 5.030801,3.536711 2.116326,1.153234 4.413999,2.124353 6.968909,2.371048 1.315851,0.140709 2.823181,-0.07233 4.073801,-0.942792 z"
         inkscape:connector-curvature="0"
         style="fill:#ffffff;stroke-width:0.25553077" />
    </g>
    <g
       id="g11997"
       transform="matrix(0.1394322,0,0,0.1394322,11.547885,64.214682)"
       style="fill:#ffffff">
      <path
         id="path11971"
         d="m 55.372,167.1 c 1.5873,0.75101 3.12,1.63 4.4267,2.793 17.917,15.683 35.459,31.765 53.359,47.464 6.194,5.276 12.098,10.86 17.998,16.442 2.209,2.316 4.599,4.536 6.305,7.245 2.479,4.044 0.48401,9.795 -3.949,11.659 -6.03,2.107 -12.625,-0.439 -16.769,-4.883 -10.705,-11.544 -20.207,-24.049 -29.707,-36.523 -9.3147,-11.924 -18.415,-24.003 -27.188,-36.304 -1.5817,-2.576 -3.6848,-4.945 -4.4747,-7.893 z"
         transform="rotate(-96.34,96.956,210.28)"
         inkscape:connector-curvature="0"
         style="fill:#ffffff" />
      <path
         id="path11973"
         d="m 134.02,150.05 c 1.781,-3.594 7.011,-5.617 11.882,-7.113 19.158,3.874 32.325,14.615 44.296,24.637 5.541,4.932 11.966,10.447 11.012,16.981 -1.305,3.008 -4.126,5.62 -7.02,8.048 -13.521,10.582 -31.685,17.897 -49.93,24.353 -7.954,2.678 -15.594,5.798 -23.77,8.168 l -1.727,-0.069 c 4.962,-4.264 11.432,-7.597 16.734,-11.657 13.379,-10.222 26.398,-20.666 40.807,-30.266 -6.545,-3.306 -14.066,-5.677 -20.342,-9.229 -7.358,-4.072 -14.34,-8.653 -19.116,-14.219 -2.509,-2.859 -4.042,-6.347 -2.826,-9.634 z"
         transform="rotate(-10.57,160.04,184.03)"
         inkscape:connector-curvature="0"
         style="fill:#ffffff" />
      <path
         id="path11975"
         d="m 206.42,96.663 c -0.974,-3.0257 -3.832,-4.729 -6.494,-5.9877 -10.47,3.2611 -17.666,12.302 -24.208,20.738 -3.028,4.153 -6.539,8.795 -6.018,14.295 0.713,2.532 2.255,4.731 3.837,6.775 7.389,8.908 17.316,15.065 27.286,20.5 4.348,2.254 8.523,4.88 12.991,6.876 l 0.944,-0.058 c -2.712,-3.59 -6.248,-6.395 -9.145,-9.813 -7.312,-8.605 -14.427,-17.396 -22.302,-25.478 3.577,-2.783 7.688,-4.778 11.118,-7.769 4.021,-3.428 7.836,-7.284 10.446,-11.97 1.372,-2.406 2.209,-5.3418 1.545,-8.1086 z"
         transform="rotate(-99.76,192.2,125.27)"
         inkscape:connector-curvature="0"
         style="fill:#ffffff" />
      <path
         id="path11977"
         d="m 174.63,65.886 c 7.23,-0.674 14.871,2.301 19.409,8.052 3.191,3.605 4.602,8.403 5.117,13.103 -0.285,5.451 -2.227,10.969 -6.111,14.91 -5.904,6.514 -16.01,8.734 -24.137,5.427 -11.119,-3.803 -17.664,-18.003 -12.111,-28.667 3.074,-7.148 10.205,-11.916 17.833,-12.825 z"
         inkscape:connector-curvature="0"
         style="fill:#ffffff" />
      <path
         id="path11979"
         d="m 129.76,77.269 c -0.8,-3.7695 -3.146,-5.8916 -5.332,-7.4597 -8.595,4.0629 -14.502,15.327 -19.873,25.837 -2.485,5.1726 -5.3682,10.957 -4.9403,17.809 0.5853,3.155 1.8513,5.894 3.1493,8.441 6.067,11.098 14.216,18.769 22.401,25.54 3.569,2.808 6.996,6.08 10.664,8.566 l 0.775,-0.072 c -2.226,-4.472 -5.129,-7.967 -7.507,-12.226 -6.003,-10.72 -11.844,-21.673 -18.308,-31.741 2.936,-3.467 6.311,-5.953 9.126,-9.679 3.301,-4.2708 6.434,-9.075 8.576,-14.912 1.126,-2.9983 1.814,-6.6556 1.269,-10.103 z"
         transform="rotate(71.811,118.09,112.91)"
         inkscape:connector-curvature="0"
         style="fill:#ffffff" />
      <path
         id="path11981"
         d="m 142.06,79.331 c 0.78101,1.9641 3.075,3.0697 5.212,3.8868 8.403,-2.1169 14.179,-7.9858 19.429,-13.462 2.431,-2.6953 5.249,-5.7086 4.831,-9.2791 -0.573,-1.6436 -1.81,-3.071 -3.079,-4.3978 -5.931,-5.7826 -13.899,-9.7794 -21.901,-13.307 -3.49,-1.4633 -6.841,-3.1682 -10.427,-4.4635 l -0.758,0.0376 c 2.177,2.3303 5.015,4.1512 7.341,6.37 5.868,5.586 11.579,11.293 17.899,16.539 -2.871,1.8067 -6.17,3.102 -8.923,5.0432 -3.227,2.2252 -6.29,4.7284 -8.385,7.77 -1.1,1.5622 -1.772,3.4678 -1.239,5.2639 z"
         transform="rotate(-90.73,153.47,60.762)"
         inkscape:connector-curvature="0"
         style="fill:#ffffff" />
    </g>
  </g>
</svg>
